<svg width="14" height="14" viewBox="0 0 14 14" fill="none" xmlns="http://www.w3.org/2000/svg">
<circle cx="7" cy="7" r="6.5" stroke="#383838"/>
<path d="M6.02614 6.196H5.00014C4.99414 5.53 5.18614 4.999 5.57614 4.603C5.97214 4.201 6.50014 4 7.16014 4C7.73014 4 8.19814 4.162 8.56414 4.486C8.93614 4.81 9.12214 5.254 9.12214 5.818C9.12214 6.19 9.03814 6.502 8.87014 6.754C8.78014 6.898 8.60014 7.084 8.33014 7.312C8.04214 7.552 7.85314 7.747 7.76314 7.897C7.61314 8.131 7.53814 8.443 7.53814 8.833H6.56614C6.56614 8.335 6.62314 7.951 6.73714 7.681C6.83314 7.453 7.01014 7.228 7.26814 7.006C7.55014 6.76 7.72114 6.601 7.78114 6.529C7.92514 6.343 7.99714 6.118 7.99714 5.854C7.99714 5.524 7.89214 5.266 7.68214 5.08C7.50814 4.93 7.31914 4.855 7.11514 4.855C6.38914 4.855 6.02614 5.302 6.02614 6.196ZM6.43114 10.579V9.454H7.63714V10.579H6.43114Z" fill="#383838"/>
</svg>
